<svg width="190" height="35" viewBox="0 0 190 35" fill="none" xmlns="http://www.w3.org/2000/svg">
<path d="M74.0158 19.1266H80.2548V20.7246H74.0158V19.1266ZM71.8398 23.4276L75.9708 11.8506H78.2828L82.4138 23.4276H80.6798L76.9738 13.0406H77.2798L73.5738 23.4276H71.8398ZM88.5867 14.9616C89.176 14.9616 89.6407 15.0636 89.9807 15.2676C90.3207 15.4603 90.57 15.7266 90.7287 16.0666C90.8874 16.3953 90.9894 16.7693 91.0347 17.1886C91.08 17.608 91.1027 18.0386 91.1027 18.4806V23.4276H89.4027V18.1236C89.4027 17.5343 89.2667 17.1376 88.9947 16.9336C88.734 16.7296 88.4224 16.6276 88.0597 16.6276C87.697 16.6276 87.3287 16.7013 86.9547 16.8486C86.5807 16.996 86.2464 17.1943 85.9517 17.4436C85.657 17.693 85.4304 17.9706 85.2717 18.2766V17.3246H85.5437V23.4276H83.8437V15.1316H85.1357L85.4927 16.5936L85.0677 16.6446C85.385 16.282 85.7307 15.976 86.1047 15.7266C86.4787 15.4773 86.8754 15.2903 87.2947 15.1656C87.714 15.0296 88.1447 14.9616 88.5867 14.9616ZM95.708 23.6656C95.062 23.6656 94.5066 23.5523 94.042 23.3256C93.5773 23.099 93.2203 22.776 92.971 22.3566C92.733 21.926 92.614 21.416 92.614 20.8266C92.614 20.2826 92.7386 19.801 92.988 19.3816C93.2373 18.951 93.5943 18.611 94.059 18.3616C94.5236 18.1123 95.0733 17.9876 95.708 17.9876C96.5013 17.9876 97.136 18.169 97.612 18.5316C98.0993 18.883 98.4393 19.3703 98.632 19.9936H97.68V17.8686C97.68 17.5173 97.561 17.1943 97.323 16.8996C97.085 16.605 96.6656 16.4576 96.065 16.4576C95.7476 16.4576 95.3963 16.4973 95.011 16.5766C94.637 16.6446 94.246 16.7693 93.838 16.9506L93.328 15.6416C93.7926 15.415 94.2743 15.245 94.773 15.1316C95.2716 15.0183 95.759 14.9616 96.235 14.9616C96.949 14.9616 97.5383 15.092 98.003 15.3526C98.4676 15.6133 98.8133 15.9646 99.04 16.4066C99.2666 16.8373 99.38 17.3246 99.38 17.8686V23.4276H98.156L97.731 21.9146L98.632 21.6596C98.428 22.3283 98.0653 22.8326 97.544 23.1726C97.0226 23.5013 96.4106 23.6656 95.708 23.6656ZM96.014 22.1526C96.5126 22.1526 96.915 22.0393 97.221 21.8126C97.527 21.5746 97.68 21.246 97.68 20.8266C97.68 20.396 97.527 20.0673 97.221 19.8406C96.915 19.614 96.5126 19.5006 96.014 19.5006C95.5153 19.5006 95.113 19.614 94.807 19.8406C94.501 20.0673 94.348 20.396 94.348 20.8266C94.348 21.246 94.501 21.5746 94.807 21.8126C95.113 22.0393 95.5153 22.1526 96.014 22.1526ZM102.755 23.5126C102.46 23.5126 102.2 23.4446 101.973 23.3086C101.746 23.1613 101.565 22.9516 101.429 22.6796C101.304 22.4076 101.242 22.0733 101.242 21.6766V11.8506H102.908V21.0816C102.908 21.433 102.993 21.671 103.163 21.7956C103.344 21.9203 103.548 21.9826 103.775 21.9826V23.3426C103.628 23.3993 103.469 23.439 103.299 23.4616C103.129 23.4956 102.948 23.5126 102.755 23.5126ZM107.558 22.3736L104.277 15.1316H106.062L108.969 21.5406L107.558 22.3736ZM105.382 26.6576L110.618 15.1316H112.403L107.167 26.6576H105.382ZM119.361 21.8636V23.4276H112.952V22.1016L117.746 15.9646L118.307 16.6956H113.054V15.1316H119.293V16.4576L114.482 22.5946L113.445 21.8636H119.361ZM124.485 23.5976C123.68 23.5976 122.972 23.422 122.36 23.0706C121.748 22.708 121.272 22.2036 120.932 21.5576C120.592 20.9116 120.422 20.158 120.422 19.2966C120.422 18.424 120.592 17.6646 120.932 17.0186C121.272 16.3726 121.748 15.8683 122.36 15.5056C122.972 15.143 123.68 14.9616 124.485 14.9616C125.301 14.9616 126.015 15.143 126.627 15.5056C127.239 15.8683 127.715 16.3726 128.055 17.0186C128.395 17.6646 128.565 18.424 128.565 19.2966C128.565 19.376 128.559 19.461 128.548 19.5516C128.548 19.631 128.542 19.7046 128.531 19.7726H122.037V18.3106H127.307L126.831 19.2966C126.831 18.4353 126.638 17.727 126.253 17.1716C125.867 16.6163 125.278 16.3386 124.485 16.3386C123.782 16.3386 123.221 16.5653 122.802 17.0186C122.382 17.4606 122.173 18.0443 122.173 18.7696V19.6536C122.173 20.413 122.377 21.0193 122.785 21.4726C123.193 21.9146 123.759 22.1356 124.485 22.1356C125.153 22.1356 125.669 21.994 126.032 21.7106C126.394 21.4273 126.712 21.076 126.984 20.6566L128.259 21.4556C127.873 22.1696 127.375 22.708 126.763 23.0706C126.162 23.422 125.403 23.5976 124.485 23.5976ZM131.02 23.5126C130.782 23.5126 130.561 23.4503 130.357 23.3256C130.153 23.201 129.989 23.0366 129.864 22.8326C129.739 22.6286 129.677 22.4076 129.677 22.1696C129.677 21.9203 129.739 21.6993 129.864 21.5066C129.989 21.3026 130.153 21.1383 130.357 21.0136C130.561 20.889 130.782 20.8266 131.02 20.8266C131.269 20.8266 131.496 20.889 131.7 21.0136C131.904 21.1383 132.068 21.3026 132.193 21.5066C132.318 21.6993 132.38 21.9203 132.38 22.1696C132.38 22.4076 132.318 22.6286 132.193 22.8326C132.068 23.0366 131.904 23.201 131.7 23.3256C131.496 23.4503 131.269 23.5126 131.02 23.5126ZM135.823 19.1266H142.062V20.7246H135.823V19.1266ZM133.647 23.4276L137.778 11.8506H140.09L144.221 23.4276H142.487L138.781 13.0406H139.087L135.381 23.4276H133.647ZM148.626 26.7936C148.15 26.7936 147.696 26.7256 147.266 26.5896C146.846 26.465 146.461 26.2553 146.11 25.9606C145.77 25.666 145.464 25.275 145.192 24.7876L145.073 24.5666L146.416 23.8356C146.71 24.323 147.022 24.6856 147.351 24.9236C147.691 25.173 148.116 25.2976 148.626 25.2976C149.317 25.2976 149.861 25.0823 150.258 24.6516C150.666 24.221 150.87 23.558 150.87 22.6626V20.8946H151.04V16.7976H150.87L151.278 15.1316H152.57V22.3906C152.57 23.3653 152.394 24.1813 152.043 24.8386C151.703 25.496 151.238 25.9833 150.649 26.3006C150.059 26.6293 149.385 26.7936 148.626 26.7936ZM148.422 22.9176C147.651 22.9176 146.971 22.7533 146.382 22.4246C145.804 22.096 145.35 21.637 145.022 21.0476C144.704 20.447 144.546 19.75 144.546 18.9566C144.546 18.152 144.704 17.455 145.022 16.8656C145.35 16.265 145.804 15.8003 146.382 15.4716C146.971 15.1316 147.651 14.9616 148.422 14.9616C149.158 14.9616 149.799 15.1316 150.343 15.4716C150.898 15.8003 151.329 16.265 151.635 16.8656C151.941 17.455 152.094 18.152 152.094 18.9566C152.094 19.75 151.941 20.447 151.635 21.0476C151.329 21.637 150.898 22.096 150.343 22.4246C149.799 22.7533 149.158 22.9176 148.422 22.9176ZM148.626 21.4556C149.328 21.4556 149.889 21.229 150.309 20.7756C150.739 20.311 150.955 19.699 150.955 18.9396C150.955 18.1803 150.739 17.574 150.309 17.1206C149.889 16.656 149.328 16.4236 148.626 16.4236C147.923 16.4236 147.356 16.656 146.926 17.1206C146.495 17.5853 146.28 18.1973 146.28 18.9566C146.28 19.7046 146.495 20.311 146.926 20.7756C147.356 21.229 147.923 21.4556 148.626 21.4556ZM158.219 23.5976C157.414 23.5976 156.706 23.422 156.094 23.0706C155.482 22.708 155.006 22.2036 154.666 21.5576C154.326 20.9116 154.156 20.158 154.156 19.2966C154.156 18.424 154.326 17.6646 154.666 17.0186C155.006 16.3726 155.482 15.8683 156.094 15.5056C156.706 15.143 157.414 14.9616 158.219 14.9616C159.035 14.9616 159.749 15.143 160.361 15.5056C160.973 15.8683 161.449 16.3726 161.789 17.0186C162.129 17.6646 162.299 18.424 162.299 19.2966C162.299 19.376 162.293 19.461 162.282 19.5516C162.282 19.631 162.276 19.7046 162.265 19.7726H155.771V18.3106H161.041L160.565 19.2966C160.565 18.4353 160.372 17.727 159.987 17.1716C159.602 16.6163 159.012 16.3386 158.219 16.3386C157.516 16.3386 156.955 16.5653 156.536 17.0186C156.117 17.4606 155.907 18.0443 155.907 18.7696V19.6536C155.907 20.413 156.111 21.0193 156.519 21.4726C156.927 21.9146 157.494 22.1356 158.219 22.1356C158.888 22.1356 159.403 21.994 159.766 21.7106C160.129 21.4273 160.446 21.076 160.718 20.6566L161.993 21.4556C161.608 22.1696 161.109 22.708 160.497 23.0706C159.896 23.422 159.137 23.5976 158.219 23.5976ZM168.639 14.9616C169.229 14.9616 169.693 15.0636 170.033 15.2676C170.373 15.4603 170.623 15.7266 170.781 16.0666C170.94 16.3953 171.042 16.7693 171.087 17.1886C171.133 17.608 171.155 18.0386 171.155 18.4806V23.4276H169.455V18.1236C169.455 17.5343 169.319 17.1376 169.047 16.9336C168.787 16.7296 168.475 16.6276 168.112 16.6276C167.75 16.6276 167.381 16.7013 167.007 16.8486C166.633 16.996 166.299 17.1943 166.004 17.4436C165.71 17.693 165.483 17.9706 165.324 18.2766V17.3246H165.596V23.4276H163.896V15.1316H165.188L165.545 16.5936L165.12 16.6446C165.438 16.282 165.783 15.976 166.157 15.7266C166.531 15.4773 166.928 15.2903 167.347 15.1656C167.767 15.0296 168.197 14.9616 168.639 14.9616ZM176.832 23.5976C175.982 23.5976 175.245 23.4163 174.622 23.0536C173.998 22.6796 173.517 22.1696 173.177 21.5236C172.837 20.8776 172.667 20.1296 172.667 19.2796C172.667 18.4296 172.837 17.6816 173.177 17.0356C173.517 16.3896 173.998 15.8853 174.622 15.5226C175.245 15.1486 175.982 14.9616 176.832 14.9616C177.636 14.9616 178.367 15.1826 179.025 15.6246C179.682 16.0553 180.158 16.6333 180.453 17.3586L178.838 18.0386C178.656 17.5626 178.384 17.2056 178.022 16.9676C177.659 16.7183 177.245 16.5936 176.781 16.5936C176.101 16.5936 175.534 16.8316 175.081 17.3076C174.627 17.7723 174.401 18.4296 174.401 19.2796C174.401 20.1296 174.627 20.7926 175.081 21.2686C175.534 21.7333 176.101 21.9656 176.781 21.9656C177.245 21.9656 177.659 21.8466 178.022 21.6086C178.384 21.3593 178.656 20.9966 178.838 20.5206L180.453 21.2006C180.147 21.926 179.665 22.5096 179.008 22.9516C178.362 23.3823 177.636 23.5976 176.832 23.5976ZM183.942 22.3736L180.661 15.1316H182.446L185.353 21.5406L183.942 22.3736ZM181.766 26.6576L187.002 15.1316H188.787L183.551 26.6576H181.766Z" fill="black"/>
<g filter="url(#filter0_d_1_34)">
<rect x="19.992" y="11.2213" width="22.9728" height="15.2346" rx="7.61729" fill="#F69F98" stroke="black"/>
<rect x="23.566" y="10.0917" width="27.0568" height="17.4916" rx="8.74578" fill="#C5F2FF" stroke="black"/>
<rect x="30.2025" y="8.40009" width="31.1409" height="20.3128" rx="10.1564" fill="#F69F98" stroke="black"/>
<rect x="36.3552" y="8.40009" width="31.0334" height="20.3128" rx="10.1564" fill="url(#paint0_linear_1_34)" stroke="black"/>
<rect x="53.1745" y="8.40009" width="14.2942" height="20.3128" rx="7.14708" fill="#F69F98" stroke="black"/>
<rect x="55.2075" y="10.5917" width="10.2311" height="15.9273" rx="5.11557" fill="url(#paint1_linear_1_34)" stroke="black"/>
<path d="M59.9269 10.7188C62.9595 10.719 65.4188 13.1773 65.4191 16.21V20.9317C65.4188 23.9643 62.9595 26.4236 59.9269 26.4238C59.6174 26.4238 59.3142 26.3959 59.0187 26.3467C61.6192 25.9135 63.6024 23.6549 63.6026 20.9317V16.21C63.6025 13.4867 61.6192 11.2279 59.0187 10.7949C59.3142 10.7457 59.6174 10.7188 59.9269 10.7188Z" fill="#B2E2F0"/>
<path d="M59.9269 10.7188L59.9269 10.2188L59.9268 10.2188L59.9269 10.7188ZM65.4191 16.21L65.9191 16.21L65.9191 16.2099L65.4191 16.21ZM65.4191 20.9317L65.9191 20.9317V20.9317H65.4191ZM59.9269 26.4238L59.9268 26.9238L59.9269 26.9238L59.9269 26.4238ZM59.0187 26.3467L58.9365 25.8535L58.9365 26.8399L59.0187 26.3467ZM63.6026 20.9317L64.1026 20.9317V20.9317H63.6026ZM63.6026 16.21L64.1026 16.21L64.1026 16.2099L63.6026 16.21ZM59.0187 10.7949L58.9365 10.3017L58.9366 11.2881L59.0187 10.7949ZM59.9269 10.7188L59.9268 11.2188C62.6835 11.2189 64.9189 13.4536 64.9191 16.21L65.4191 16.21L65.9191 16.2099C65.9188 12.9011 63.2355 10.219 59.9269 10.2188L59.9269 10.7188ZM65.4191 16.21H64.9191V20.9317H65.4191H65.9191V16.21H65.4191ZM65.4191 20.9317L64.9191 20.9316C64.9188 23.6881 62.6833 25.9237 59.9268 25.9238L59.9269 26.4238L59.9269 26.9238C63.2356 26.9236 65.9188 24.2404 65.9191 20.9317L65.4191 20.9317ZM59.9269 26.4238L59.9269 25.9238C59.6475 25.9238 59.3719 25.8987 59.1008 25.8535L59.0187 26.3467L58.9365 26.8399C59.2565 26.8932 59.5873 26.9238 59.9268 26.9238L59.9269 26.4238ZM59.0187 26.3467L59.1008 26.8399C61.9381 26.3673 64.1024 23.9036 64.1026 20.9317L63.6026 20.9317L63.1026 20.9316C63.1025 23.4061 61.3002 25.4598 58.9365 25.8535L59.0187 26.3467ZM63.6026 20.9317H64.1026V16.21H63.6026H63.1026V20.9317H63.6026ZM63.6026 16.21L64.1026 16.2099C64.1024 13.238 61.9382 10.7741 59.1008 10.3017L59.0187 10.7949L58.9366 11.2881C61.3002 11.6817 63.1025 13.7355 63.1026 16.21L63.6026 16.21ZM59.0187 10.7949L59.1008 11.2881C59.3707 11.2432 59.6465 11.2188 59.9269 11.2188L59.9269 10.7188L59.9268 10.2188C59.5883 10.2188 59.2576 10.2483 58.9365 10.3017L59.0187 10.7949Z" fill="black"/>
</g>
<g filter="url(#filter1_d_1_34)">
<rect x="29.5571" y="0.5" width="14.8047" height="10.7206" rx="5.36031" fill="#F69F98" stroke="black"/>
<rect x="34.6617" y="0.5" width="13.7837" height="10.7206" rx="5.36031" fill="#C5F2FF" stroke="black"/>
<rect x="39.8336" y="1.62849" width="9.02793" height="9.02793" rx="4" fill="#9BE9F6" stroke="black"/>
<rect x="42.3198" y="2.75698" width="8.1681" height="6.20668" rx="3.10334" fill="#F69F98" stroke="black"/>
<rect x="45.8938" y="2.75698" width="4.59455" height="6.20668" rx="2.29728" fill="#DEFFFF" stroke="black"/>
</g>
<g filter="url(#filter2_d_1_34)">
<rect x="2.5" y="11.2213" width="22.9728" height="15.2346" rx="7.61729" fill="#F69F98" stroke="black"/>
<rect x="6.07392" y="10.0917" width="27.0568" height="17.4916" rx="8.74578" fill="#C5F2FF" stroke="black"/>
<rect x="12.7115" y="8.40009" width="31.1409" height="20.3128" rx="10.1564" fill="#F69F98" stroke="black"/>
<rect x="18.8367" y="8.40009" width="27.5673" height="20.3128" rx="10.1564" fill="url(#paint2_linear_1_34)" stroke="black"/>
<rect x="35.6825" y="8.40009" width="14.2942" height="20.3128" rx="7.14708" fill="#F69F98" stroke="black"/>
<rect x="37.7143" y="10.5917" width="10.2311" height="15.9273" rx="5.11557" fill="url(#paint3_linear_1_34)" stroke="black"/>
<path d="M42.998 10.7188C46.0307 10.7188 48.49 13.1773 48.4902 16.21V20.957C48.4899 23.9897 46.0307 26.4482 42.998 26.4483C42.6885 26.4482 42.3853 26.4203 42.0898 26.3711C44.6903 25.9381 46.6736 23.6803 46.6738 20.957V16.21C46.6736 13.4867 44.6904 11.2278 42.0898 10.7949C42.3853 10.7457 42.6885 10.7188 42.998 10.7188Z" fill="#B2E2F0"/>
<path d="M42.998 10.7188L42.998 10.2188L42.9979 10.2188L42.998 10.7188ZM48.4902 16.21L48.9902 16.21L48.9902 16.2099L48.4902 16.21ZM48.4902 20.957L48.9902 20.9571V20.957H48.4902ZM42.998 26.4483L42.9979 26.9483L42.998 26.9483L42.998 26.4483ZM42.0898 26.3711L42.0077 25.8779L42.0076 26.8643L42.0898 26.3711ZM46.6738 20.957L47.1738 20.9571V20.957H46.6738ZM46.6738 16.21L47.1738 16.21L47.1738 16.2099L46.6738 16.21ZM42.0898 10.7949L42.0076 10.3017L42.0077 11.2882L42.0898 10.7949ZM42.998 10.7188L42.998 11.2188C45.7547 11.2188 47.99 13.4535 47.9902 16.21L48.4902 16.21L48.9902 16.2099C48.9899 12.901 46.3068 10.2188 42.998 10.2188L42.998 10.7188ZM48.4902 16.21H47.9902V20.957H48.4902H48.9902V16.21H48.4902ZM48.4902 20.957L47.9902 20.957C47.99 23.7135 45.7547 25.9482 42.998 25.9483L42.998 26.4483L42.998 26.9483C46.3068 26.9482 48.9899 24.266 48.9902 20.9571L48.4902 20.957ZM42.998 26.4483L42.998 25.9483C42.7186 25.9482 42.443 25.9231 42.1719 25.8779L42.0898 26.3711L42.0076 26.8643C42.3277 26.9176 42.6584 26.9482 42.9979 26.9483L42.998 26.4483ZM42.0898 26.3711L42.1719 26.8643C45.0092 26.3919 47.1735 23.9291 47.1738 20.9571L46.6738 20.957L46.1738 20.957C46.1736 23.4314 44.3714 25.4844 42.0077 25.8779L42.0898 26.3711ZM46.6738 20.957H47.1738V16.21H46.6738H46.1738V20.957H46.6738ZM46.6738 16.21L47.1738 16.2099C47.1736 13.2379 45.0094 10.7741 42.1719 10.3017L42.0898 10.7949L42.0077 11.2882C44.3714 11.6816 46.1736 13.7354 46.1738 16.21L46.6738 16.21ZM42.0898 10.7949L42.1719 11.2881C42.4419 11.2432 42.7176 11.2188 42.998 11.2188L42.998 10.7188L42.9979 10.2188C42.6594 10.2188 42.3287 10.2483 42.0076 10.3017L42.0898 10.7949Z" fill="black"/>
</g>
<defs>
<filter id="filter0_d_1_34" x="17.492" y="7.90009" width="52.4767" height="25.3128" filterUnits="userSpaceOnUse" color-interpolation-filters="sRGB">
<feFlood flood-opacity="0" result="BackgroundImageFix"/>
<feColorMatrix in="SourceAlpha" type="matrix" values="0 0 0 0 0 0 0 0 0 0 0 0 0 0 0 0 0 0 127 0" result="hardAlpha"/>
<feOffset dy="2"/>
<feGaussianBlur stdDeviation="1"/>
<feComposite in2="hardAlpha" operator="out"/>
<feColorMatrix type="matrix" values="0 0 0 0 0 0 0 0 0 0 0 0 0 0 0 0 0 0 0.1 0"/>
<feBlend mode="normal" in2="BackgroundImageFix" result="effect1_dropShadow_1_34"/>
<feBlend mode="normal" in="SourceGraphic" in2="effect1_dropShadow_1_34" result="shape"/>
</filter>
<filter id="filter1_d_1_34" x="27.0571" y="0" width="25.9312" height="15.7206" filterUnits="userSpaceOnUse" color-interpolation-filters="sRGB">
<feFlood flood-opacity="0" result="BackgroundImageFix"/>
<feColorMatrix in="SourceAlpha" type="matrix" values="0 0 0 0 0 0 0 0 0 0 0 0 0 0 0 0 0 0 127 0" result="hardAlpha"/>
<feOffset dy="2"/>
<feGaussianBlur stdDeviation="1"/>
<feComposite in2="hardAlpha" operator="out"/>
<feColorMatrix type="matrix" values="0 0 0 0 0 0 0 0 0 0 0 0 0 0 0 0 0 0 0.25 0"/>
<feBlend mode="normal" in2="BackgroundImageFix" result="effect1_dropShadow_1_34"/>
<feBlend mode="normal" in="SourceGraphic" in2="effect1_dropShadow_1_34" result="shape"/>
</filter>
<filter id="filter2_d_1_34" x="0" y="7.90009" width="52.4767" height="25.3128" filterUnits="userSpaceOnUse" color-interpolation-filters="sRGB">
<feFlood flood-opacity="0" result="BackgroundImageFix"/>
<feColorMatrix in="SourceAlpha" type="matrix" values="0 0 0 0 0 0 0 0 0 0 0 0 0 0 0 0 0 0 127 0" result="hardAlpha"/>
<feOffset dy="2"/>
<feGaussianBlur stdDeviation="1"/>
<feComposite in2="hardAlpha" operator="out"/>
<feColorMatrix type="matrix" values="0 0 0 0 0 0 0 0 0 0 0 0 0 0 0 0 0 0 0.1 0"/>
<feBlend mode="normal" in2="BackgroundImageFix" result="effect1_dropShadow_1_34"/>
<feBlend mode="normal" in="SourceGraphic" in2="effect1_dropShadow_1_34" result="shape"/>
</filter>
<linearGradient id="paint0_linear_1_34" x1="51.8719" y1="28.7129" x2="51.8719" y2="8.40009" gradientUnits="userSpaceOnUse">
<stop stop-color="#9BE9F6"/>
<stop offset="0.259713" stop-color="#83E9FF"/>
<stop offset="0.778949" stop-color="#83E9FF"/>
<stop offset="1" stop-color="#9BE9F6"/>
</linearGradient>
<linearGradient id="paint1_linear_1_34" x1="60.323" y1="10.0917" x2="60.323" y2="27.019" gradientUnits="userSpaceOnUse">
<stop stop-color="#D7F9FC"/>
<stop offset="1" stop-color="white"/>
</linearGradient>
<linearGradient id="paint2_linear_1_34" x1="32.6203" y1="28.7129" x2="32.6203" y2="8.40009" gradientUnits="userSpaceOnUse">
<stop stop-color="#9BE9F6"/>
<stop offset="0.259713" stop-color="#83E9FF"/>
<stop offset="0.778949" stop-color="#83E9FF"/>
<stop offset="1" stop-color="#9BE9F6"/>
</linearGradient>
<linearGradient id="paint3_linear_1_34" x1="42.8299" y1="10.0917" x2="42.8299" y2="27.019" gradientUnits="userSpaceOnUse">
<stop stop-color="#D7F9FC"/>
<stop offset="1" stop-color="white"/>
</linearGradient>
</defs>
</svg>
