<svg width="27" height="27" viewBox="0 0 27 27" fill="none" xmlns="http://www.w3.org/2000/svg">
<path fill-rule="evenodd" clip-rule="evenodd" d="M8.53586 7C7.70519 7 7 7.64763 7 8.5055C7 9.36087 7.72425 9.99583 8.53586 9.99583C9.36058 9.99583 10.0717 9.37613 10.0717 8.5055C10.0717 7.63252 9.37965 7 8.53586 7ZM14.7644 10.913C13.7436 10.913 12.5866 11.0849 11.6727 11.6832L11.6709 11.6844C11.2583 11.9594 10.913 12.3663 10.913 12.9491V17.7206C10.913 18.1855 11.0808 18.5289 11.3926 18.7421C11.6851 18.9421 12.066 19 12.4421 19C12.5304 19 12.6217 18.9985 12.7145 18.9947C13.3528 18.9681 13.7419 18.4056 13.7419 17.8356V14.0998C13.7419 13.788 13.9116 13.5441 14.1449 13.4858C14.337 13.4377 14.534 13.4126 14.7338 13.4126C15.018 13.4126 15.2535 13.4862 15.412 13.6112C15.5624 13.7299 15.6647 13.9109 15.6647 14.1848V17.7206C15.6647 18.1873 15.8276 18.5324 16.1401 18.7458C16.4323 18.9453 16.8145 19 17.1937 19C17.2774 19 17.3634 18.9986 17.4507 18.995C18.0895 18.9689 18.4783 18.4053 18.4783 17.8356V13.8512C18.4783 12.7878 17.9928 12.0388 17.2737 11.5667C16.5675 11.1031 15.6489 10.913 14.7644 10.913ZM8.24409 10.6646C8.34161 10.6568 8.44853 10.6522 8.56522 10.6522C8.6819 10.6522 8.78882 10.6568 8.88634 10.6646C9.51022 10.715 9.82783 11.2687 9.83962 11.7968C9.8535 12.4203 9.86957 13.4407 9.86957 14.8261C9.86957 16.2115 9.8535 17.2319 9.83962 17.8553C9.82783 18.3835 9.51022 18.9371 8.88634 18.9875C8.78882 18.9954 8.6819 19 8.56522 19C8.44853 19 8.34161 18.9954 8.24409 18.9875C7.62021 18.9371 7.3026 18.3835 7.29083 17.8553C7.27693 17.2319 7.26087 16.2115 7.26087 14.8261C7.26087 13.4407 7.27693 12.4203 7.29083 11.7968C7.3026 11.2687 7.62021 10.715 8.24409 10.6646Z" fill="#1D1D1D"/>
<path d="M18.06 1H8.79C4.4877 1 1 4.4877 1 8.79V18.06C1 22.3623 4.4877 25.85 8.79 25.85H18.06C22.3623 25.85 25.85 22.3623 25.85 18.06V8.79C25.85 4.4877 22.3623 1 18.06 1Z" stroke="#1D1D1D" stroke-width="0.75" stroke-miterlimit="10"/>
</svg>
