<svg width="9" height="9" viewBox="0 0 9 9" fill="none" xmlns="http://www.w3.org/2000/svg">
<path d="M4.84511 0.579102C4.84511 0.259059 4.58567 -0.000385926 4.26563 -0.00038594C3.94558 -0.000385954 3.68614 0.259059 3.68614 0.579102L4.26562 0.579102L4.84511 0.579102ZM3.85587 8.5222C4.08217 8.7485 4.44908 8.7485 4.67538 8.5222L8.36322 4.83436C8.58952 4.60806 8.58952 4.24115 8.36322 4.01484C8.13692 3.78854 7.77001 3.78854 7.5437 4.01484L4.26562 7.29292L0.987548 4.01484C0.761245 3.78854 0.394333 3.78854 0.16803 4.01484C-0.0582744 4.24115 -0.0582744 4.60806 0.16803 4.83436L3.85587 8.5222ZM4.26562 0.579102L3.68614 0.579102L3.68614 8.11244L4.26562 8.11244L4.84511 8.11244L4.84511 0.579102L4.26562 0.579102Z" fill="black"/>
</svg>
